<svg width="61" height="61" viewBox="0 0 61 61" fill="none" xmlns="http://www.w3.org/2000/svg">
<circle cx="30.5" cy="30.5" r="30.5" fill="#86FFD9"/>
<path fill-rule="evenodd" clip-rule="evenodd" d="M24.5833 28.9167C24.5833 28.3184 25.0684 27.8334 25.6667 27.8334H34.3333C34.9316 27.8334 35.4167 28.3184 35.4167 28.9167C35.4167 29.515 34.9316 30 34.3333 30H25.6667C25.0684 30 24.5833 29.515 24.5833 28.9167Z" fill="#090B0E"/>
<path fill-rule="evenodd" clip-rule="evenodd" d="M24.5833 24.5834C24.5833 23.9851 25.0684 23.5 25.6667 23.5H34.3333C34.9316 23.5 35.4167 23.9851 35.4167 24.5834C35.4167 25.1817 34.9316 25.6667 34.3333 25.6667H25.6667C25.0684 25.6667 24.5833 25.1817 24.5833 24.5834Z" fill="#090B0E"/>
<path fill-rule="evenodd" clip-rule="evenodd" d="M24.5833 33.25C24.5833 32.6517 25.0684 32.1667 25.6667 32.1667H34.3333C34.9316 32.1667 35.4167 32.6517 35.4167 33.25C35.4167 33.8483 34.9316 34.3334 34.3333 34.3334H25.6667C25.0684 34.3334 24.5833 33.8483 24.5833 33.25Z" fill="#090B0E"/>
<path fill-rule="evenodd" clip-rule="evenodd" d="M20.25 20.25C20.25 19.0534 21.22 18.0834 22.4167 18.0834H37.5833C38.78 18.0834 39.75 19.0534 39.75 20.25V40.8334C39.75 41.2272 39.5363 41.59 39.1918 41.7809C38.8474 41.9718 38.4265 41.9608 38.0925 41.752L34.3333 39.4026L30.5742 41.752C30.2229 41.9716 29.7771 41.9716 29.4258 41.752L25.6667 39.4026L21.9075 41.752C21.5735 41.9608 21.1526 41.9718 20.8082 41.7809C20.4637 41.59 20.25 41.2272 20.25 40.8334V20.25ZM37.5833 20.25L22.4167 20.25V38.8788L25.0925 37.2064C25.4438 36.9868 25.8895 36.9868 26.2408 37.2064L30 39.5559L33.7592 37.2064C34.1105 36.9868 34.5562 36.9868 34.9075 37.2064L37.5833 38.8788V20.25Z" fill="#090B0E"/>
</svg>
