<svg width="61" height="61" viewBox="0 0 61 61" fill="none" xmlns="http://www.w3.org/2000/svg">
<circle cx="30.5" cy="30.5" r="30.5" fill="#86FFD9"/>
<path d="M41.647 32.4517H36.6567C36.5978 32.4517 36.5472 32.4916 36.5346 32.5484C35.9579 34.9997 34.0005 36.9565 31.5485 37.5351C31.4917 37.5477 31.4517 37.5982 31.4517 37.6571V42.648C31.4517 42.6838 31.4664 42.7195 31.4938 42.7427C31.5169 42.7637 31.5464 42.7742 31.5779 42.7742C31.5843 42.7742 31.5885 42.7742 31.5948 42.7742C36.8819 42.0694 41.0682 37.8844 41.7733 32.5968C41.7775 32.5611 41.767 32.5253 41.7439 32.4958C41.7186 32.4664 41.6828 32.4517 41.647 32.4517Z" fill="#090B0E"/>
<path d="M30.0545 24.3673C33.1662 24.3673 35.8379 26.4884 36.5503 29.5276C36.5629 29.5842 36.6132 29.624 36.6719 29.624H41.6422C41.6443 29.624 41.6464 29.624 41.6485 29.624C41.7176 29.624 41.7742 29.5674 41.7742 29.4983C41.7742 29.4794 41.77 29.4605 41.7616 29.4438C40.9633 23.6169 35.9385 19.2258 30.0545 19.2258C23.5314 19.2258 18.2258 24.535 18.2258 31.0598C18.2258 36.9579 22.6325 41.9924 28.4766 42.7742C28.4829 42.7742 28.4871 42.7742 28.4934 42.7742C28.5248 42.7742 28.5542 42.7637 28.5772 42.7428C28.6045 42.7176 28.6191 42.6841 28.6191 42.6485V37.6768C28.6191 37.6181 28.5793 37.5678 28.5227 37.5552C25.4865 36.8405 23.3638 34.1681 23.3638 31.0577C23.3638 27.3708 26.3645 24.3673 30.0545 24.3673Z" fill="#090B0E"/>
</svg>
