<svg width="60" height="60" viewBox="0 0 60 60" fill="none" xmlns="http://www.w3.org/2000/svg">
<rect width="60" height="60" rx="30" fill="#6944D8"/>
<path d="M26.25 42.5C26.9404 42.5 27.5 41.9404 27.5 41.25C27.5 40.5596 26.9404 40 26.25 40C25.5596 40 25 40.5596 25 41.25C25 41.9404 25.5596 42.5 26.25 42.5Z" stroke="white" stroke-width="2" stroke-linecap="round" stroke-linejoin="round"/>
<path d="M40 42.5C40.6904 42.5 41.25 41.9404 41.25 41.25C41.25 40.5596 40.6904 40 40 40C39.3096 40 38.75 40.5596 38.75 41.25C38.75 41.9404 39.3096 42.5 40 42.5Z" stroke="white" stroke-width="2" stroke-linecap="round" stroke-linejoin="round"/>
<path d="M16.25 16.25H21.25L24.6 32.9875C24.7143 33.563 25.0274 34.0799 25.4844 34.4479C25.9415 34.8158 26.5134 35.0112 27.1 35H39.25C39.8366 35.0112 40.4085 34.8158 40.8656 34.4479C41.3226 34.0799 41.6357 33.563 41.75 32.9875L43.75 22.5H22.5" stroke="white" stroke-width="2" stroke-linecap="round" stroke-linejoin="round"/>
</svg>
