<svg width="61" height="61" viewBox="0 0 61 61" fill="none" xmlns="http://www.w3.org/2000/svg">
<circle cx="30.5" cy="30.5" r="30.5" fill="#6944D8"/>
<path d="M39 34C38.3793 34.0032 37.7748 34.1989 37.27 34.56L34.82 33.11C34.9356 32.7512 34.9963 32.377 35 32C34.9971 31.1154 34.7011 30.2568 34.1583 29.5584C33.6155 28.8599 32.8565 28.3611 32 28.14V25.82C32.6672 25.5841 33.2296 25.1199 33.5876 24.5095C33.9457 23.8991 34.0765 23.1818 33.9568 22.4843C33.8371 21.7868 33.4747 21.154 32.9337 20.6979C32.3926 20.2418 31.7077 19.9916 31 19.9916C30.2923 19.9916 29.6074 20.2418 29.0663 20.6979C28.5253 21.154 28.1629 21.7868 28.0432 22.4843C27.9235 23.1818 28.0543 23.8991 28.4124 24.5095C28.7704 25.1199 29.3328 25.5841 30 25.82V28.14C29.1435 28.3611 28.3845 28.8599 27.8417 29.5584C27.2989 30.2568 27.0029 31.1154 27 32C27.0037 32.377 27.0644 32.7512 27.18 33.11L24.73 34.56C24.2252 34.1989 23.6207 34.0032 23 34C22.4067 34 21.8266 34.176 21.3333 34.5056C20.8399 34.8352 20.4554 35.3038 20.2284 35.852C20.0013 36.4001 19.9419 37.0033 20.0576 37.5853C20.1734 38.1672 20.4591 38.7018 20.8787 39.1213C21.2982 39.5409 21.8328 39.8266 22.4147 39.9424C22.9967 40.0581 23.5999 39.9987 24.1481 39.7716C24.6962 39.5446 25.1648 39.1601 25.4944 38.6667C25.8241 38.1734 26 37.5933 26 37C25.9963 36.7291 25.9559 36.46 25.88 36.2L28.18 34.83C28.9295 35.575 29.9433 35.9932 31 35.9932C32.0567 35.9932 33.0706 35.575 33.82 34.83L36.12 36.2C35.9524 36.8056 35.9793 37.4485 36.1967 38.0381C36.4141 38.6276 36.8112 39.134 37.3318 39.4858C37.8525 39.8376 38.4705 40.017 39.0986 39.9987C39.7267 39.9805 40.3332 39.7654 40.8325 39.384C41.3318 39.0026 41.6988 38.474 41.8816 37.8728C42.0644 37.2716 42.0538 36.6282 41.8514 36.0334C41.6489 35.4385 41.2648 34.9223 40.7532 34.5574C40.2416 34.1926 39.6284 33.9976 39 34V34ZM23 38C22.8022 38 22.6089 37.9414 22.4444 37.8315C22.28 37.7216 22.1518 37.5654 22.0761 37.3827C22.0004 37.2 21.9806 36.9989 22.0192 36.8049C22.0578 36.6109 22.153 36.4327 22.2929 36.2929C22.4327 36.153 22.6109 36.0578 22.8049 36.0192C22.9989 35.9806 23.2 36.0004 23.3827 36.0761C23.5654 36.1518 23.7216 36.28 23.8315 36.4444C23.9414 36.6089 24 36.8022 24 37C24 37.2652 23.8946 37.5196 23.7071 37.7071C23.5196 37.8946 23.2652 38 23 38ZM31 22C31.1978 22 31.3911 22.0587 31.5556 22.1685C31.72 22.2784 31.8482 22.4346 31.9239 22.6173C31.9996 22.8 32.0194 23.0011 31.9808 23.1951C31.9422 23.3891 31.847 23.5673 31.7071 23.7071C31.5673 23.847 31.3891 23.9422 31.1951 23.9808C31.0011 24.0194 30.8 23.9996 30.6173 23.9239C30.4346 23.8482 30.2784 23.72 30.1685 23.5556C30.0587 23.3911 30 23.1978 30 23C30 22.7348 30.1054 22.4804 30.2929 22.2929C30.4804 22.1054 30.7348 22 31 22V22ZM31 34C30.6044 34 30.2178 33.8827 29.8889 33.6629C29.56 33.4432 29.3036 33.1308 29.1522 32.7654C29.0009 32.3999 28.9613 31.9978 29.0384 31.6098C29.1156 31.2219 29.3061 30.8655 29.5858 30.5858C29.8655 30.3061 30.2219 30.1156 30.6098 30.0384C30.9978 29.9613 31.3999 30.0009 31.7654 30.1522C32.1308 30.3036 32.4432 30.56 32.6629 30.8889C32.8827 31.2178 33 31.6044 33 32C33 32.5304 32.7893 33.0391 32.4142 33.4142C32.0391 33.7893 31.5304 34 31 34ZM39 38C38.8022 38 38.6089 37.9414 38.4444 37.8315C38.28 37.7216 38.1518 37.5654 38.0761 37.3827C38.0004 37.2 37.9806 36.9989 38.0192 36.8049C38.0578 36.6109 38.153 36.4327 38.2929 36.2929C38.4327 36.153 38.6109 36.0578 38.8049 36.0192C38.9989 35.9806 39.2 36.0004 39.3827 36.0761C39.5654 36.1518 39.7216 36.28 39.8315 36.4444C39.9414 36.6089 40 36.8022 40 37C40 37.2652 39.8946 37.5196 39.7071 37.7071C39.5196 37.8946 39.2652 38 39 38Z" fill="white"/>
</svg>
