<svg width="61" height="61" viewBox="0 0 61 61" fill="none" xmlns="http://www.w3.org/2000/svg">
<circle cx="30.5" cy="30.5" r="30.5" fill="#86FFD9"/>
<path fill-rule="evenodd" clip-rule="evenodd" d="M18.3051 27.0283C17.8983 26.6215 17.8983 25.9619 18.3051 25.5551L22.4718 21.3885C22.8786 20.9817 23.5381 20.9817 23.9449 21.3885L28.1116 25.5551C28.5184 25.9619 28.5184 26.6215 28.1116 27.0283C27.7048 27.4351 27.0452 27.4351 26.6384 27.0283L23.2083 23.5982L19.7782 27.0283C19.3714 27.4351 18.7119 27.4351 18.3051 27.0283Z" fill="#090B0E"/>
<path fill-rule="evenodd" clip-rule="evenodd" d="M24.25 36.7084C24.25 38.4343 25.6491 39.8334 27.375 39.8334H29.4583C30.0336 39.8334 30.5 40.2997 30.5 40.875C30.5 41.4503 30.0336 41.9167 29.4583 41.9167H27.375C24.4985 41.9167 22.1667 39.5849 22.1667 36.7084V22.125C22.1667 21.5497 22.633 21.0834 23.2083 21.0834C23.7836 21.0834 24.25 21.5497 24.25 22.125V36.7084Z" fill="#090B0E"/>
<path fill-rule="evenodd" clip-rule="evenodd" d="M32.8884 35.9718C33.2952 35.565 33.9548 35.565 34.3616 35.9718L37.7917 39.4019L41.2218 35.9718C41.6286 35.565 42.2881 35.565 42.6949 35.9718C43.1017 36.3786 43.1017 37.0381 42.6949 37.4449L38.5282 41.6116C38.1214 42.0184 37.4619 42.0184 37.0551 41.6116L32.8884 37.4449C32.4816 37.0381 32.4816 36.3786 32.8884 35.9718Z" fill="#090B0E"/>
<path fill-rule="evenodd" clip-rule="evenodd" d="M30.5 22.125C30.5 21.5497 30.9664 21.0834 31.5417 21.0834L33.625 21.0834C36.5015 21.0834 38.8333 23.4152 38.8333 26.2917V40.875C38.8333 41.4503 38.367 41.9167 37.7917 41.9167C37.2164 41.9167 36.75 41.4503 36.75 40.875V26.2917C36.75 24.5658 35.3509 23.1667 33.625 23.1667H31.5417C30.9664 23.1667 30.5 22.7003 30.5 22.125Z" fill="#090B0E"/>
</svg>
