<svg xmlns="http://www.w3.org/2000/svg" viewBox="0 0 61 61"><defs><style>.cls-1{fill:#86ffd9;}.cls-2,.cls-3{fill:none;stroke-linecap:round;stroke-linejoin:round;stroke-width:1.5px;}.cls-2{stroke:#090b0e;}.cls-3{stroke:#000;}</style></defs><g id="Layer_2" data-name="Layer 2"><g id="Layer_1-2" data-name="Layer 1"><circle class="cls-1" cx="30.5" cy="30.5" r="30.5"/><rect class="cls-2" x="17.33" y="31.83" width="4.57" height="11.09" rx="0.93"/><rect class="cls-2" x="21.9" y="33.08" width="2.37" height="9.62"/><polygon class="cls-3" points="40.59 22.25 40.59 18 33 18 33 26.5 36.28 26.5 36.28 30.76 46.93 30.76 46.93 22.25 40.59 22.25"/><path class="cls-3" d="M36.68,36.61a1.31,1.31,0,0,0-1.3-1.31,1.3,1.3,0,0,0,1.3-1.3,1.22,1.22,0,0,0-1.29-1.21h-5.3V29.87s-2.79.63-3.25,2.41c-.18.67-2.57,1.12-2.57,1.12v9.3h2.21a1.3,1.3,0,0,0,.94.41h8a1.31,1.31,0,0,0,0-2.61,1.31,1.31,0,0,0,1.3-1.31,1.29,1.29,0,0,0-1.24-1.29A1.29,1.29,0,0,0,36.68,36.61Z"/><line class="cls-3" x1="19.59" y1="33.77" x2="19.59" y2="36.84"/><polyline class="cls-3" points="36.28 26.5 40.59 26.5 40.59 26.5 40.59 22.25"/><line class="cls-3" x1="40.59" y1="26.5" x2="36.28" y2="30.76"/><path class="cls-3" d="M30.09,43.11v1a1.46,1.46,0,1,0,2.91,0v-1Z"/><path class="cls-3" d="M33,32.79V17.41a1.46,1.46,0,0,0-2.91,0V32.79Z"/></g></g></svg>